<?xml version="1.0" encoding="UTF-8" standalone="no"?>
<svg
   height="48"
   viewBox="0 -960 960 960"
   width="48"
   version="1.1"
   id="svg4"
   sodipodi:docname="GI_brightnessHighWhite.svg"
   inkscape:version="1.2.2 (b0a8486541, 2022-12-01)"
   xmlns:inkscape="http://www.inkscape.org/namespaces/inkscape"
   xmlns:sodipodi="http://sodipodi.sourceforge.net/DTD/sodipodi-0.dtd"
   xmlns="http://www.w3.org/2000/svg"
   xmlns:svg="http://www.w3.org/2000/svg">
  <defs
     id="defs8" />
  <sodipodi:namedview
     id="namedview6"
     pagecolor="#ffffff"
     bordercolor="#000000"
     borderopacity="0.25"
     inkscape:showpageshadow="2"
     inkscape:pageopacity="0.0"
     inkscape:pagecheckerboard="0"
     inkscape:deskcolor="#d1d1d1"
     showgrid="false"
     inkscape:zoom="16.729167"
     inkscape:cx="24"
     inkscape:cy="23.970112"
     inkscape:window-width="1914"
     inkscape:window-height="1074"
     inkscape:window-x="0"
     inkscape:window-y="0"
     inkscape:window-maximized="1"
     inkscape:current-layer="svg4" />
  <path
     d="M481-29 346-160H160v-186L26-480l134-134v-186h186l135-134 133 134h186v186l134 134-134 134v186H614L481-29Zm0-191q107.917 0 183.458-76.125Q740-372.25 740-481q0-107.917-75.542-183.458Q588.917-740 481-740q-108.75 0-184.875 75.542Q220-588.917 220-481q0 108.75 76.125 184.875T481-220Zm-.5-60q-83.5 0-142-58.5t-58.5-142q0-83.5 58.5-141.5t142-58q83.5 0 141.5 58t58 141.5q0 83.5-58 142T480.5-280Z"
     id="path2" />
  <path
     style="fill:#ffffff;stroke:#ffffff;stroke-width:0.0597758"
     d="M 20.687669,43.241009 17.34545,39.990037 H 12.69265 8.0398506 V 35.342266 30.694494 L 4.6924018,27.347445 1.3449529,24.000397 4.6924018,20.652555 8.0398506,17.304713 V 12.657338 8.0099626 l 4.6475714,-0.00138 4.647572,-0.00138 3.364745,-3.3240408 3.364745,-3.3240457 3.290716,3.3254241 3.290716,3.325424 h 4.657117 4.657116 v 4.6477718 4.647772 l 3.347449,3.347049 3.347449,3.347048 -3.347449,3.347842 -3.347449,3.347842 v 4.647375 4.647375 h -4.650108 -4.650109 l -2.836815,2.788428 c -1.560249,1.533635 -3.052009,2.996572 -3.315022,3.250972 l -0.478207,0.462545 z m 5.60991,-6.381687 c 3.602907,-0.640945 6.569466,-2.609791 8.647786,-5.739364 1.460544,-2.199316 2.180791,-4.879218 2.066946,-7.690719 -0.137221,-3.388775 -1.287341,-6.099903 -3.595491,-8.475488 -1.216129,-1.251658 -2.228064,-2.000175 -3.648451,-2.698716 -1.807281,-0.888813 -3.477068,-1.25628 -5.708593,-1.25628 -1.693622,0 -2.899031,0.183482 -4.31992,0.657559 -1.839002,0.61358 -3.447697,1.620157 -4.919904,3.078431 -1.160784,1.149798 -1.893966,2.152394 -2.562115,3.503587 -1.897153,3.836597 -1.676001,8.874803 0.548092,12.48645 0.688581,1.118169 1.89734,2.502892 2.956001,3.386321 1.793072,1.496277 3.99618,2.461095 6.385019,2.796226 0.841035,0.117988 3.382785,0.08859 4.15063,-0.04801 z"
     id="path860"
     transform="matrix(20,0,0,20,0,-960)" />
  <path
     style="fill:#ffffff;stroke:#ffffff;stroke-width:0.0597758"
     d="m 22.834371,33.915448 c -1.972624,-0.291163 -3.348349,-0.838643 -4.752179,-1.891162 -1.290858,-0.967819 -2.35474,-2.239093 -3.06346,-3.66065 -1.112437,-2.231333 -1.297004,-5.122856 -0.484572,-7.591531 1.004142,-3.051209 3.764402,-5.627126 6.88224,-6.422613 1.622462,-0.413956 3.640322,-0.404048 5.295217,0.026 2.663318,0.692103 5.08776,2.729008 6.314494,5.305149 1.36256,2.861377 1.240153,6.491245 -0.310579,9.2099 -1.214743,2.129618 -3.229326,3.81249 -5.455878,4.557541 -1.091047,0.365088 -1.641885,0.451513 -3.020551,0.473919 -0.673972,0.01095 -1.306102,0.008 -1.404732,-0.0066 z"
     id="path862"
     transform="matrix(20,0,0,20,0,-960)" />
</svg>
