<?xml version="1.0" encoding="UTF-8" standalone="no"?>
<svg
   height="48"
   viewBox="0 -960 960 960"
   width="48"
   version="1.1"
   id="svg4"
   sodipodi:docname="GI_batteryLowWhite.svg"
   inkscape:version="1.2.2 (b0a8486541, 2022-12-01)"
   xmlns:inkscape="http://www.inkscape.org/namespaces/inkscape"
   xmlns:sodipodi="http://sodipodi.sourceforge.net/DTD/sodipodi-0.dtd"
   xmlns="http://www.w3.org/2000/svg"
   xmlns:svg="http://www.w3.org/2000/svg">
  <defs
     id="defs8" />
  <sodipodi:namedview
     id="namedview6"
     pagecolor="#ffffff"
     bordercolor="#000000"
     borderopacity="0.25"
     inkscape:showpageshadow="2"
     inkscape:pageopacity="0.0"
     inkscape:pagecheckerboard="0"
     inkscape:deskcolor="#d1d1d1"
     showgrid="false"
     inkscape:zoom="16.729167"
     inkscape:cx="24"
     inkscape:cy="23.970112"
     inkscape:window-width="1914"
     inkscape:window-height="1074"
     inkscape:window-x="0"
     inkscape:window-y="0"
     inkscape:window-maximized="1"
     inkscape:current-layer="svg4" />
  <path
     d="M310-80q-12.75 0-21.375-8.625T280-110v-676q0-12.75 8.625-21.375T310-816h90v-64h160v64h90q12.75 0 21.375 8.625T680-786v676q0 12.75-8.625 21.375T650-80H310Zm30-60h280v-616H340v616Z"
     id="path2" />
  <path
     style="fill:#ffffff;stroke:#ffffff;stroke-width:0.0597758"
     d="M 15.212951,43.939641 C 14.775073,43.85006 14.408564,43.563612 14.175809,43.129053 L 14.047323,42.889166 14.03197,25.735258 C 14.015081,6.8644146 13.988737,8.2261918 14.379818,7.7541805 14.482758,7.6299386 14.6787,7.4685439 14.815246,7.3955255 15.058705,7.2653348 15.111826,7.2624276 17.559153,7.2453519 L 20.054795,7.227939 V 5.6164602 4.0049813 H 24 27.945205 V 5.6164602 7.227939 l 2.495642,0.017413 c 2.447327,0.017076 2.500448,0.019983 2.743906,0.1501736 0.136546,0.073018 0.332489,0.2344131 0.435429,0.358655 0.391081,0.4720113 0.364737,-0.8897659 0.347848,17.9810774 -0.01465,16.368427 -0.02027,17.163782 -0.122731,17.369554 -0.14104,0.283245 -0.425886,0.569777 -0.726321,0.730619 l -0.242266,0.1297 -8.727272,0.0087 c -4.8,0.0048 -8.82142,-0.0106 -8.936489,-0.03414 z M 31.053549,25.58406 V 10.161893 H 24 16.946451 V 25.58406 41.006227 H 24 31.053549 Z"
     id="path806"
     transform="matrix(20,0,0,20,0,-960)" />
</svg>
