<?xml version="1.0" encoding="UTF-8" standalone="no"?>
<svg
   height="48"
   viewBox="0 -960 960 960"
   width="48"
   version="1.1"
   id="svg4"
   sodipodi:docname="GI_brightnessMediumWhite.svg"
   inkscape:version="1.2.2 (b0a8486541, 2022-12-01)"
   xmlns:inkscape="http://www.inkscape.org/namespaces/inkscape"
   xmlns:sodipodi="http://sodipodi.sourceforge.net/DTD/sodipodi-0.dtd"
   xmlns="http://www.w3.org/2000/svg"
   xmlns:svg="http://www.w3.org/2000/svg">
  <defs
     id="defs8" />
  <sodipodi:namedview
     id="namedview6"
     pagecolor="#ffffff"
     bordercolor="#000000"
     borderopacity="0.25"
     inkscape:showpageshadow="2"
     inkscape:pageopacity="0.0"
     inkscape:pagecheckerboard="0"
     inkscape:deskcolor="#d1d1d1"
     showgrid="false"
     inkscape:zoom="16.729167"
     inkscape:cx="24"
     inkscape:cy="23.970112"
     inkscape:window-width="1914"
     inkscape:window-height="1074"
     inkscape:window-x="0"
     inkscape:window-y="0"
     inkscape:window-maximized="1"
     inkscape:current-layer="svg4" />
  <path
     d="M481-29 346-160H160v-186L26-480l134-134v-186h186l135-134 133 134h186v186l134 134-134 134v186H614L481-29Zm0-191q108 0 183.5-76T740-481q0-108-75.5-183.5T481-740v520Z"
     id="path2" />
  <path
     style="fill:#ffffff;stroke:#ffffff;stroke-width:0.0597758"
     d="M 20.687669,43.241009 17.34545,39.990037 H 12.69265 8.0398506 V 35.342266 30.694494 L 4.6924018,27.347445 1.3449529,24.000397 4.6924018,20.652555 8.0398506,17.304713 V 12.657338 8.0099626 l 4.6475714,-0.00138 4.647572,-0.00138 3.364745,-3.3240408 3.364745,-3.3240457 3.290716,3.3254241 3.290716,3.325424 h 4.657117 4.657116 v 4.6477718 4.647772 l 3.347449,3.347049 3.347449,3.347048 -3.347449,3.347842 -3.347449,3.347842 v 4.647375 4.647375 h -4.650108 -4.650109 l -2.836815,2.788428 c -1.560249,1.533635 -3.052009,2.996572 -3.315022,3.250972 l -0.478207,0.462545 z m 5.60991,-6.385468 c 2.789482,-0.476495 5.166227,-1.75691 7.166827,-3.860957 1.940588,-2.040931 3.087396,-4.438994 3.458119,-7.231197 0.113901,-0.857877 0.09648,-2.989596 -0.03127,-3.825654 -0.463272,-3.03192 -1.784243,-5.479439 -4.122797,-7.638789 -1.588143,-1.466443 -3.4851,-2.478062 -5.5762,-2.973704 C 26.377824,11.132199 25.316121,10.998755 24.5947,10.998755 H 24 v 13.009928 13.009929 l 0.881694,-0.03591 c 0.484931,-0.01975 1.122079,-0.07697 1.415885,-0.127161 z"
     id="path860"
     transform="matrix(20,0,0,20,0,-960)" />
</svg>
