<?xml version="1.0" encoding="UTF-8" standalone="no"?>
<svg
   height="48"
   viewBox="0 -960 960 960"
   width="48"
   version="1.1"
   id="svg4"
   sodipodi:docname="GI_batteryFullWhite.svg"
   inkscape:version="1.2.2 (b0a8486541, 2022-12-01)"
   xmlns:inkscape="http://www.inkscape.org/namespaces/inkscape"
   xmlns:sodipodi="http://sodipodi.sourceforge.net/DTD/sodipodi-0.dtd"
   xmlns="http://www.w3.org/2000/svg"
   xmlns:svg="http://www.w3.org/2000/svg">
  <defs
     id="defs8" />
  <sodipodi:namedview
     id="namedview6"
     pagecolor="#ffffff"
     bordercolor="#000000"
     borderopacity="0.25"
     inkscape:showpageshadow="2"
     inkscape:pageopacity="0.0"
     inkscape:pagecheckerboard="0"
     inkscape:deskcolor="#d1d1d1"
     showgrid="false"
     inkscape:zoom="16.729167"
     inkscape:cx="24"
     inkscape:cy="23.970112"
     inkscape:window-width="1914"
     inkscape:window-height="1074"
     inkscape:window-x="0"
     inkscape:window-y="0"
     inkscape:window-maximized="1"
     inkscape:current-layer="svg4" />
  <path
     d="M320-80q-17 0-28.5-11.5T280-120v-640q0-17 11.5-28.5T320-800h80v-80h160v80h80q17 0 28.5 11.5T680-760v640q0 17-11.5 28.5T640-80H320Z"
     id="path2" />
  <path
     style="fill:#ffffff;stroke:#ffffff;stroke-width:0.0597758"
     d="M 15.571606,43.91249 C 14.9477,43.774888 14.525418,43.444399 14.24457,42.873915 L 14.047323,42.473248 V 26.002491 9.5317327 l 0.195499,-0.3971159 c 0.223941,-0.4548892 0.49428,-0.7173705 0.967402,-0.9392825 l 0.331495,-0.1554837 2.256538,-0.018825 2.256538,-0.018825 V 6.003591 4.0049813 H 24 27.945205 V 6.003591 8.0022008 l 2.256538,0.018825 2.256538,0.018825 0.331495,0.1554837 c 0.473122,0.221912 0.743461,0.4843933 0.967402,0.9392825 l 0.195499,0.3971159 V 26.002491 42.473248 l -0.197247,0.400667 c -0.292378,0.593904 -0.745412,0.932174 -1.41394,1.055759 -0.528011,0.09761 -16.322786,0.08142 -16.769884,-0.01718 z"
     id="path860"
     transform="matrix(20,0,0,20,0,-960)" />
</svg>
