<?xml version="1.0" encoding="UTF-8" standalone="no"?>
<svg
   height="48"
   viewBox="0 -960 960 960"
   width="48"
   version="1.1"
   id="svg4"
   sodipodi:docname="GI_confirmNoWhite.svg"
   inkscape:version="1.2.2 (b0a8486541, 2022-12-01)"
   xmlns:inkscape="http://www.inkscape.org/namespaces/inkscape"
   xmlns:sodipodi="http://sodipodi.sourceforge.net/DTD/sodipodi-0.dtd"
   xmlns="http://www.w3.org/2000/svg"
   xmlns:svg="http://www.w3.org/2000/svg">
  <defs
     id="defs8" />
  <sodipodi:namedview
     id="namedview6"
     pagecolor="#ffffff"
     bordercolor="#000000"
     borderopacity="0.25"
     inkscape:showpageshadow="2"
     inkscape:pageopacity="0.0"
     inkscape:pagecheckerboard="0"
     inkscape:deskcolor="#d1d1d1"
     showgrid="false"
     inkscape:zoom="16.729167"
     inkscape:cx="24"
     inkscape:cy="23.970112"
     inkscape:window-width="1914"
     inkscape:window-height="1074"
     inkscape:window-x="0"
     inkscape:window-y="0"
     inkscape:window-maximized="1"
     inkscape:current-layer="svg4" />
  <path
     d="m249-207-42-42 231-231-231-231 42-42 231 231 231-231 42 42-231 231 231 231-42 42-231-231-231 231Z"
     id="path2" />
  <path
     style="fill:#ffffff;stroke:#ffffff;stroke-width:0.0597758"
     d="m 11.417186,36.582815 -1.015414,-1.016733 5.753037,-5.753269 C 19.318979,26.648516 21.907846,24.032749 21.907846,24 c 0,-0.03275 -2.588867,-2.648516 -5.753037,-5.812813 l -5.753037,-5.753268 1.015414,-1.016734 1.015414,-1.016734 5.7837,5.78347 5.7837,5.783469 5.7837,-5.783469 5.7837,-5.78347 1.015414,1.016734 1.015414,1.016734 -5.753037,5.753268 C 28.681021,21.351484 26.092154,23.967251 26.092154,24 c 0,0.03275 2.588867,2.648516 5.753037,5.812813 l 5.753037,5.753269 -1.015414,1.016733 L 35.5674,37.599548 29.7837,31.816079 24,26.03261 l -5.7837,5.783469 -5.7837,5.783469 z"
     id="path806"
     transform="matrix(20,0,0,20,0,-960)" />
</svg>
