<?xml version="1.0" encoding="UTF-8" standalone="no"?>
<svg
   height="48"
   viewBox="0 -960 960 960"
   width="48"
   version="1.1"
   id="svg4"
   sodipodi:docname="GI_fileImageWhite.svg"
   inkscape:version="1.2.2 (b0a8486541, 2022-12-01)"
   xmlns:inkscape="http://www.inkscape.org/namespaces/inkscape"
   xmlns:sodipodi="http://sodipodi.sourceforge.net/DTD/sodipodi-0.dtd"
   xmlns="http://www.w3.org/2000/svg"
   xmlns:svg="http://www.w3.org/2000/svg">
  <defs
     id="defs8" />
  <sodipodi:namedview
     id="namedview6"
     pagecolor="#505050"
     bordercolor="#eeeeee"
     borderopacity="1"
     inkscape:showpageshadow="0"
     inkscape:pageopacity="0"
     inkscape:pagecheckerboard="0"
     inkscape:deskcolor="#505050"
     showgrid="false"
     inkscape:zoom="18.145833"
     inkscape:cx="24"
     inkscape:cy="24"
     inkscape:window-width="1906"
     inkscape:window-height="1066"
     inkscape:window-x="0"
     inkscape:window-y="0"
     inkscape:window-maximized="1"
     inkscape:current-layer="svg4" />
  <path
     d="M180-120q-24 0-42-18t-18-42v-600q0-24 18-42t42-18h600q24 0 42 18t18 42v600q0 24-18 42t-42 18H180Zm0-60h600v-600H180v600Zm56-97h489L578-473 446-302l-93-127-117 152Zm-56 97v-600 600Z"
     id="path2" />
  <path
     style="fill:#ffffff;stroke:#ffffff;stroke-width:0.0551091"
     d="M 8.309043,41.880742 C 7.5428655,41.674381 6.67768,40.976907 6.3517546,40.302863 6.0109109,39.597967 6.0344432,40.807009 6.0344432,24 6.0344432,7.194568 6.0109509,8.4027998 6.3514279,7.6971366 6.5536032,7.2781137 7.2781137,6.5536032 7.6971366,6.3514279 8.4027815,6.0109597 7.1963881,6.0344432 23.981311,6.0344432 c 11.149244,0 15.413278,0.01692 15.625621,0.062003 1.029292,0.2185335 1.999165,1.1712203 2.276562,2.236221 0.07173,0.2753777 0.08206,2.2486488 0.08206,15.6673328 0,13.418684 -0.01034,15.391955 -0.08206,15.667333 -0.273123,1.048593 -1.167568,1.943038 -2.216161,2.216161 -0.4617,0.120258 -30.9115012,0.117584 -31.35829,-0.0027 z M 39.044776,24 V 8.9552239 H 24 8.9552239 V 24 39.044776 H 24 39.044776 Z"
     id="path375"
     transform="matrix(20,0,0,20,0,-960)" />
  <path
     style="fill:#ffffff;stroke:#ffffff;stroke-width:0.0551091"
     d="m 11.91179,34.071183 c 0.122471,-0.199493 5.710734,-7.425743 5.741667,-7.424619 0.02011,7.31e-4 1.065716,1.412801 2.323581,3.137933 1.257864,1.725132 2.304397,3.131882 2.325626,3.126111 0.02123,-0.0058 1.502617,-1.907623 3.291971,-4.226337 1.789355,-2.318714 3.276989,-4.215844 3.305855,-4.215844 0.04337,0 7.278614,9.595775 7.278614,9.653302 0,0.01009 -5.469661,0.01834 -12.154802,0.01834 -9.709657,0 -12.146295,-0.01386 -12.112512,-0.06889 z"
     id="path377"
     transform="matrix(20,0,0,20,0,-960)" />
</svg>
