<?xml version="1.0" encoding="UTF-8" standalone="no"?>
<svg
   height="48"
   viewBox="0 -960 960 960"
   width="48"
   version="1.1"
   id="svg4"
   sodipodi:docname="GI_fileAppWhite.svg"
   inkscape:version="1.2.2 (b0a8486541, 2022-12-01)"
   xmlns:inkscape="http://www.inkscape.org/namespaces/inkscape"
   xmlns:sodipodi="http://sodipodi.sourceforge.net/DTD/sodipodi-0.dtd"
   xmlns="http://www.w3.org/2000/svg"
   xmlns:svg="http://www.w3.org/2000/svg">
  <defs
     id="defs8" />
  <sodipodi:namedview
     id="namedview6"
     pagecolor="#505050"
     bordercolor="#eeeeee"
     borderopacity="1"
     inkscape:showpageshadow="0"
     inkscape:pageopacity="0"
     inkscape:pagecheckerboard="0"
     inkscape:deskcolor="#505050"
     showgrid="false"
     inkscape:zoom="18.145833"
     inkscape:cx="24"
     inkscape:cy="24"
     inkscape:window-width="1906"
     inkscape:window-height="1066"
     inkscape:window-x="0"
     inkscape:window-y="0"
     inkscape:window-maximized="1"
     inkscape:current-layer="svg4" />
  <path
     d="M226-160q-28 0-47-19t-19-47q0-28 19-47t47-19q28 0 47 19t19 47q0 28-19 47t-47 19Zm254 0q-28 0-47-19t-19-47q0-28 19-47t47-19q28 0 47 19t19 47q0 28-19 47t-47 19Zm254 0q-28 0-47-19t-19-47q0-28 19-47t47-19q28 0 47 19t19 47q0 28-19 47t-47 19ZM226-414q-28 0-47-19t-19-47q0-28 19-47t47-19q28 0 47 19t19 47q0 28-19 47t-47 19Zm254 0q-28 0-47-19t-19-47q0-28 19-47t47-19q28 0 47 19t19 47q0 28-19 47t-47 19Zm254 0q-28 0-47-19t-19-47q0-28 19-47t47-19q28 0 47 19t19 47q0 28-19 47t-47 19ZM226-668q-28 0-47-19t-19-47q0-28 19-47t47-19q28 0 47 19t19 47q0 28-19 47t-47 19Zm254 0q-28 0-47-19t-19-47q0-28 19-47t47-19q28 0 47 19t19 47q0 28-19 47t-47 19Zm254 0q-28 0-47-19t-19-47q0-28 19-47t47-19q28 0 47 19t19 47q0 28-19 47t-47 19Z"
     id="path2" />
  <path
     style="fill:#ffffff;stroke:#ffffff;stroke-width:0.0551091"
     d="M 10.553387,14.490374 C 9.4371299,14.249765 8.4859174,13.357002 8.1495142,12.234214 8.0137793,11.781181 8.0135151,10.81506 8.1490018,10.360505 8.4571706,9.3266055 9.3266055,8.4571706 10.360505,8.1490018 c 0.454555,-0.1354867 1.420676,-0.1352225 1.873709,5.124e-4 1.135892,0.3403294 2.019956,1.2917765 2.259229,2.4314268 0.439944,2.095444 -1.1071,4.010303 -3.223638,3.99007 -0.197015,-0.0019 -0.519403,-0.03817 -0.716418,-0.08064 z"
     id="path306"
     transform="matrix(20,0,0,20,0,-960)" />
  <path
     style="fill:#ffffff;stroke:#ffffff;stroke-width:0.0551091"
     d="M 10.443169,27.164216 C 9.5770382,26.935709 8.747101,26.259208 8.3771204,25.480135 c -0.4660027,-0.981269 -0.4660027,-1.979001 0,-2.96027 0.145942,-0.307312 0.2997885,-0.513902 0.6203035,-0.832961 0.6628956,-0.659885 1.3471601,-0.939079 2.2977361,-0.937525 0.939604,0.0015 1.588768,0.254012 2.24716,0.873972 0.422372,0.397719 0.691465,0.807152 0.873837,1.329577 0.180855,0.518075 0.180855,1.576069 0,2.094144 -0.367637,1.053134 -1.335608,1.931076 -2.36376,2.14391 -0.403168,0.08346 -1.244476,0.06946 -1.609228,-0.02677 z"
     id="path308"
     transform="matrix(20,0,0,20,0,-960)" />
  <path
     style="fill:#ffffff;stroke:#ffffff;stroke-width:0.0551091"
     d="M 10.705675,39.928432 C 9.7460665,39.753178 8.8944318,39.137759 8.4151856,38.273249 8.1422567,37.780914 8.0504455,37.385565 8.0504455,36.702641 c 0,-0.989956 0.2639,-1.64499 0.9346009,-2.319801 1.8082706,-1.819352 4.9838536,-0.895004 5.5083966,1.603383 0.356964,1.700211 -0.612845,3.375095 -2.231675,3.854155 -0.362862,0.107382 -1.19304,0.154359 -1.556093,0.08805 z"
     id="path310"
     transform="matrix(20,0,0,20,0,-960)" />
  <path
     style="fill:#ffffff;stroke:#ffffff;stroke-width:0.0551091"
     d="m 23.287551,39.896046 c -1.22252,-0.265121 -2.257074,-1.301399 -2.486844,-2.490988 -0.08267,-0.428007 -0.04043,-1.370875 0.07843,-1.750574 0.280621,-0.896465 1.124795,-1.739358 2.073789,-2.070641 0.518075,-0.180854 1.576069,-0.180854 2.094144,0 0.734736,0.256488 1.370659,0.774708 1.778902,1.449645 0.29012,0.479647 0.378283,0.802853 0.410494,1.504874 0.03209,0.699421 -0.04599,1.102185 -0.325645,1.679778 -0.251231,0.518883 -0.893749,1.149748 -1.430688,1.40474 -0.717127,0.340562 -1.456848,0.432721 -2.192584,0.273166 z"
     id="path312"
     transform="matrix(20,0,0,20,0,-960)" />
  <path
     style="fill:#ffffff;stroke:#ffffff;stroke-width:0.0551091"
     d="m 23.129799,27.165703 c -1.13321,-0.30503 -2.010927,-1.199396 -2.305503,-2.349237 -0.134971,-0.526843 -0.08293,-1.496545 0.106695,-1.988104 0.340136,-0.881723 1.01625,-1.557406 1.899316,-1.898103 0.493181,-0.190275 1.460147,-0.240721 1.993769,-0.104013 1.03719,0.265716 1.857388,0.997671 2.245665,2.004061 0.190191,0.492964 0.239918,1.458748 0.102269,1.986263 -0.30784,1.179746 -1.168823,2.050611 -2.325098,2.351782 -0.400716,0.104373 -1.324812,0.102947 -1.717113,-0.0027 z"
     id="path314"
     transform="matrix(20,0,0,20,0,-960)" />
  <path
     style="fill:#ffffff;stroke:#ffffff;stroke-width:0.0551091"
     d="m 23.269878,14.495785 c -0.609026,-0.127376 -1.0579,-0.380567 -1.562748,-0.881482 -0.485539,-0.481755 -0.780814,-0.995268 -0.898112,-1.561906 -0.07759,-0.374836 -0.07759,-1.135239 0,-1.510075 0.150641,-0.7277083 0.726567,-1.5510459 1.39559,-1.9951177 0.401562,-0.2665415 1.048334,-0.4734158 1.59371,-0.5097583 0.566158,-0.037727 1.124507,0.075009 1.681459,0.3395045 0.806602,0.3830536 1.532365,1.3014396 1.711205,2.1653715 0.07759,0.374836 0.07759,1.135239 0,1.510075 -0.212635,1.027188 -1.103242,2.00955 -2.136365,2.356463 -0.455705,0.153022 -1.277366,0.193041 -1.784739,0.08692 z"
     id="path316"
     transform="matrix(20,0,0,20,0,-960)" />
  <path
     style="fill:#ffffff;stroke:#ffffff;stroke-width:0.0551091"
     d="m 35.958668,14.490374 c -1.201724,-0.259031 -2.197729,-1.264983 -2.452111,-2.476597 -0.359717,-1.713323 0.608703,-3.369742 2.259229,-3.8642628 0.453033,-0.1357349 1.419154,-0.1359991 1.873709,-5.125e-4 1.033899,0.3081688 1.903334,1.1776036 2.211503,2.2115033 0.135487,0.454555 0.135223,1.420676 -4.96e-4,1.873708 -0.160193,0.534667 -0.420274,0.965143 -0.835532,1.382947 -0.791657,0.796492 -1.918549,1.118458 -3.056302,0.873214 z"
     id="path318"
     transform="matrix(20,0,0,20,0,-960)" />
  <path
     style="fill:#ffffff;stroke:#ffffff;stroke-width:0.0551091"
     d="m 35.863448,27.172251 c -0.480615,-0.116459 -0.991979,-0.404613 -1.398372,-0.787984 -0.429571,-0.405235 -0.698184,-0.812832 -0.881233,-1.337195 -0.180854,-0.518075 -0.180854,-1.576069 0,-2.094144 0.182372,-0.522425 0.451464,-0.931858 0.873837,-1.329577 0.653958,-0.615785 1.308301,-0.872408 2.228471,-0.873972 0.981417,-0.0017 1.644863,0.266578 2.316425,0.93658 0.811969,0.810082 1.132459,1.88391 0.89576,3.001323 -0.258519,1.220429 -1.274067,2.262208 -2.440658,2.5037 -0.382868,0.07926 -1.230969,0.06929 -1.59423,-0.01873 z"
     id="path320"
     transform="matrix(20,0,0,20,0,-960)" />
  <path
     style="fill:#ffffff;stroke:#ffffff;stroke-width:0.0551091"
     d="m 36.087992,39.925018 c -2.565,-0.462123 -3.555942,-3.686281 -1.702599,-5.539625 1.749377,-1.749377 4.754814,-0.990253 5.465093,1.380393 0.135735,0.453033 0.135999,1.419154 4.96e-4,1.873709 -0.304881,1.022924 -1.181337,1.90638 -2.183933,2.201392 -0.37159,0.109341 -1.195488,0.153237 -1.579057,0.08413 z"
     id="path322"
     transform="matrix(20,0,0,20,0,-960)" />
</svg>
