<?xml version="1.0" encoding="UTF-8" standalone="no"?>
<svg
   height="48"
   viewBox="0 -960 960 960"
   width="48"
   version="1.1"
   id="svg4"
   sodipodi:docname="GI_fileVideoWhite.svg"
   inkscape:version="1.2.2 (b0a8486541, 2022-12-01)"
   xmlns:inkscape="http://www.inkscape.org/namespaces/inkscape"
   xmlns:sodipodi="http://sodipodi.sourceforge.net/DTD/sodipodi-0.dtd"
   xmlns="http://www.w3.org/2000/svg"
   xmlns:svg="http://www.w3.org/2000/svg">
  <defs
     id="defs8" />
  <sodipodi:namedview
     id="namedview6"
     pagecolor="#505050"
     bordercolor="#eeeeee"
     borderopacity="1"
     inkscape:showpageshadow="0"
     inkscape:pageopacity="0"
     inkscape:pagecheckerboard="0"
     inkscape:deskcolor="#505050"
     showgrid="false"
     inkscape:zoom="18.145833"
     inkscape:cx="24"
     inkscape:cy="24"
     inkscape:window-width="1906"
     inkscape:window-height="1066"
     inkscape:window-x="0"
     inkscape:window-y="0"
     inkscape:window-maximized="1"
     inkscape:current-layer="svg4" />
  <path
     d="m140-800 74 152h130l-74-152h89l74 152h130l-74-152h89l74 152h130l-74-152h112q24 0 42 18t18 42v520q0 24-18 42t-42 18H140q-24 0-42-18t-18-42v-520q0-24 18-42t42-18Zm0 212v368h680v-368H140Zm0 0v368-368Z"
     id="path2" />
  <path
     style="fill:#ffffff;stroke:#ffffff;stroke-width:0.0551091"
     d="M 6.3795723,39.898189 C 5.422267,39.690207 4.4536355,38.795259 4.1612458,37.848612 4.0516242,37.493698 4.0505166,37.355177 4.0505166,24 c 0,-13.355177 0.00111,-13.493698 0.1107292,-13.848612 0.3100107,-1.0036974 1.3367019,-1.9037594 2.3705047,-2.0781328 0.2184932,-0.036854 0.4150671,-0.045519 0.4402129,-0.019405 0.024989,0.025951 0.8693216,1.7397204 1.8762953,3.8083768 l 1.8308613,3.761194 h 3.271232 c 1.799178,0 3.271232,-0.01134 3.271232,-0.0252 0,-0.01386 -0.828184,-1.724998 -1.84041,-3.802525 l -1.84041,-3.7773233 h 2.191116 2.191117 l 1.830948,3.7611943 c 1.007022,2.068656 1.848805,3.779991 1.870631,3.802967 0.02182,0.02298 1.506315,0.03537 3.298866,0.02756 l 3.259183,-0.01422 -1.54535,-3.168772 C 25.787333,10.684271 24.959557,8.9793341 24.797774,8.6383467 l -0.29415,-0.619977 2.186764,9.26e-5 2.186765,9.26e-5 1.846154,3.8012851 1.846153,3.801284 3.265213,0.0011 c 1.795867,6.33e-4 3.265212,-0.0201 3.265212,-0.04607 0,-0.02597 -0.81837,-1.727884 -1.818599,-3.782025 -1.00023,-2.0541391 -1.818599,-3.7440256 -1.818599,-3.7553012 0,-0.011276 1.295752,-0.02007 2.879448,-0.019544 3.188901,0.00106 3.35591,0.015409 3.966811,0.3408249 0.688491,0.3667457 1.317202,1.1028976 1.529808,1.7912363 0.109622,0.354914 0.110729,0.493435 0.110729,13.848612 0,13.355177 -0.0011,13.493698 -0.110729,13.848612 -0.296612,0.960317 -1.263208,1.844194 -2.244092,2.052048 -0.542746,0.11501 -34.6853717,0.112614 -35.2150897,-0.0025 z M 41.028703,27.802526 V 18.599311 H 24 6.9712974 v 9.203215 9.203215 H 24 41.028703 Z"
     id="path306"
     transform="matrix(20,0,0,20,0,-960)" />
</svg>
