<?xml version="1.0" encoding="UTF-8" standalone="no"?>
<svg
   height="48"
   viewBox="0 -960 960 960"
   width="48"
   version="1.1"
   id="svg4"
   sodipodi:docname="GI_filePdfWhite.svg"
   inkscape:version="1.2.2 (b0a8486541, 2022-12-01)"
   xmlns:inkscape="http://www.inkscape.org/namespaces/inkscape"
   xmlns:sodipodi="http://sodipodi.sourceforge.net/DTD/sodipodi-0.dtd"
   xmlns="http://www.w3.org/2000/svg"
   xmlns:svg="http://www.w3.org/2000/svg">
  <defs
     id="defs8" />
  <sodipodi:namedview
     id="namedview6"
     pagecolor="#505050"
     bordercolor="#eeeeee"
     borderopacity="1"
     inkscape:showpageshadow="0"
     inkscape:pageopacity="0"
     inkscape:pagecheckerboard="0"
     inkscape:deskcolor="#505050"
     showgrid="false"
     inkscape:zoom="18.145833"
     inkscape:cx="24"
     inkscape:cy="24"
     inkscape:window-width="1906"
     inkscape:window-height="1066"
     inkscape:window-x="0"
     inkscape:window-y="0"
     inkscape:window-maximized="1"
     inkscape:current-layer="svg4" />
  <path
     d="M331-431h37v-83h48q15.725 0 26.362-10.638Q453-535.275 453-551v-48q0-15.725-10.638-26.362Q431.725-636 416-636h-85v205Zm37-120v-48h48v48h-48Zm129 120h84q15 0 26-10.638 11-10.637 11-26.362v-131q0-15.725-11-26.362Q596-636 581-636h-84v205Zm37-37v-131h47v131h-47Zm133 37h37v-83h50v-37h-50v-48h50v-37h-87v205ZM260-200q-24 0-42-18t-18-42v-560q0-24 18-42t42-18h560q24 0 42 18t18 42v560q0 24-18 42t-42 18H260Zm0-60h560v-560H260v560ZM140-80q-24 0-42-18t-18-42v-620h60v620h620v60H140Zm120-740v560-560Z"
     id="path2" />
  <path
     style="fill:#ffffff;stroke:#ffffff;stroke-width:0.0551091"
     d="M 6.1446613,43.824065 C 5.6334594,43.649141 5.2836034,43.429014 4.9047072,43.043894 4.5453673,42.678652 4.2457794,42.170437 4.1271252,41.724819 4.0643084,41.488904 4.0517164,38.835919 4.0511707,25.722158 L 4.0505166,10.002296 H 5.510907 6.9712974 V 25.515499 41.028703 H 22.484501 37.997704 v 1.46039 1.46039 l -15.747417,-0.0014 -15.7474167,-0.0014 -0.358209,-0.122573 z"
     id="path306"
     transform="matrix(20,0,0,20,0,-960)" />
  <path
     style="fill:#ffffff;stroke:#ffffff;stroke-width:0.0551091"
     d="M 12.619378,37.940851 C 11.503426,37.793295 10.477094,36.896165 10.131069,35.765786 10.03395,35.448522 10.029851,34.850429 10.029851,20.996556 V 6.5579793 l 0.122393,-0.3857635 c 0.306597,-0.966342 1.235006,-1.847392 2.175204,-2.0642448 0.154006,-0.035521 5.310198,-0.055003 14.675996,-0.055453 12.03371,-5.776e-4 14.485679,0.011849 14.721375,0.074607 0.969763,0.2582177 1.889838,1.1782928 2.148056,2.148056 0.06276,0.2356957 0.07518,2.6876649 0.07461,14.721375 -4.41e-4,9.365798 -0.01993,14.52199 -0.05545,14.675996 -0.211963,0.918998 -1.081686,1.847735 -2.03669,2.174887 l -0.358209,0.12271 -14.273249,0.0072 c -7.850287,0.004 -14.422314,-0.01246 -14.604503,-0.03655 z M 41.028703,20.996556 V 6.9712974 H 27.003444 12.978186 V 20.996556 35.021814 h 14.025258 14.025259 z"
     id="path308"
     transform="matrix(20,0,0,20,0,-960)" />
  <path
     style="fill:#ffffff;stroke:#ffffff;stroke-width:0.0551091"
     d="m 16.560276,21.32498 v -5.099819 l 2.355912,0.01601 c 2.338987,0.01589 2.357973,0.01694 2.642579,0.145647 0.362307,0.163846 0.790637,0.611963 0.929753,0.972703 0.09638,0.249922 0.106199,0.428248 0.106199,1.928657 v 1.653272 l -0.153191,0.311947 c -0.183719,0.374111 -0.495014,0.668605 -0.914822,0.865449 -0.305452,0.143223 -0.329242,0.145477 -1.728773,0.163795 l -1.419058,0.01857 v 2.061794 2.061793 h -0.9093 -0.909299 z m 4.243398,-2.06436 v -1.2124 h -1.2124 -1.212399 v 1.2124 1.2124 h 1.212399 1.2124 z"
     id="path310"
     transform="matrix(20,0,0,20,0,-960)" />
  <path
     style="fill:#ffffff;stroke:#ffffff;stroke-width:0.0551091"
     d="m 24.881745,21.327233 v -5.102118 l 2.328358,0.01603 c 2.305246,0.01587 2.330895,0.01729 2.583851,0.143145 0.412938,0.205448 0.68847,0.479137 0.885706,0.879781 l 0.181419,0.368514 v 3.693466 3.693467 l -0.145926,0.311254 c -0.185833,0.396372 -0.524175,0.734713 -0.920547,0.920546 l -0.311254,0.145927 -2.300803,0.01605 -2.300804,0.01605 z m 4.188289,-2.3e-5 v -3.27899 h -1.184845 -1.184845 v 3.27899 3.27899 h 1.184845 1.184845 z"
     id="path312"
     transform="matrix(20,0,0,20,0,-960)" />
  <path
     style="fill:#ffffff;stroke:#ffffff;stroke-width:0.0551091"
     d="m 33.368542,21.32721 v -5.097589 h 2.149254 2.149253 v 0.9093 0.909299 h -1.239954 -1.239954 v 1.2124 1.2124 h 1.239954 1.239954 v 0.909299 0.9093 h -1.239954 -1.239954 v 2.06659 2.06659 h -0.909299 -0.9093 z"
     id="path314"
     transform="matrix(20,0,0,20,0,-960)" />
</svg>
