<?xml version="1.0" encoding="UTF-8" standalone="no"?>
<svg
   height="48"
   viewBox="0 -960 960 960"
   width="48"
   version="1.1"
   id="svg4"
   sodipodi:docname="GI_hardDriveWhite.svg"
   inkscape:version="1.2.2 (b0a8486541, 2022-12-01)"
   xmlns:inkscape="http://www.inkscape.org/namespaces/inkscape"
   xmlns:sodipodi="http://sodipodi.sourceforge.net/DTD/sodipodi-0.dtd"
   xmlns="http://www.w3.org/2000/svg"
   xmlns:svg="http://www.w3.org/2000/svg">
  <defs
     id="defs8" />
  <sodipodi:namedview
     id="namedview6"
     pagecolor="#505050"
     bordercolor="#eeeeee"
     borderopacity="1"
     inkscape:showpageshadow="0"
     inkscape:pageopacity="0"
     inkscape:pagecheckerboard="0"
     inkscape:deskcolor="#505050"
     showgrid="false"
     inkscape:zoom="18.145833"
     inkscape:cx="24"
     inkscape:cy="24"
     inkscape:window-width="1906"
     inkscape:window-height="1066"
     inkscape:window-x="0"
     inkscape:window-y="0"
     inkscape:window-maximized="1"
     inkscape:current-layer="svg4" />
  <path
     d="M140-260h680v-280H140v280Zm540.118-90Q701-350 715.5-364.618q14.5-14.617 14.5-35.5Q730-421 715.382-435.5q-14.617-14.5-35.5-14.5Q659-450 644.5-435.382q-14.5 14.617-14.5 35.5Q630-379 644.618-364.5q14.617 14.5 35.5 14.5ZM880-600h-85L695-700H265L165-600H80l142-142q8-8 19.278-13 11.278-5 23.722-5h430q12.444 0 23.722 5T738-742l142 142ZM140-200q-24.75 0-42.375-17.625T80-260v-340h800v340q0 24.75-17.625 42.375T820-200H140Z"
     id="path2" />
  <path
     style="fill:#ffffff;stroke:#ffffff;stroke-width:0.0551091"
     d="M 6.612489,37.940773 C 5.466634,37.789531 4.4700242,36.926013 4.1384365,35.797116 4.0595775,35.528638 4.0505165,34.597133 4.0505165,26.758289 V 18.018786 L 7.784156,14.291517 c 3.99105,-3.98424 3.862641,-3.870603 4.698048,-4.157555 0.29328,-0.100738 0.665547,-0.104111 11.490241,-0.104111 12.295919,0 11.367453,-0.02638 12.123996,0.344522 0.358752,0.175884 0.647191,0.450161 4.119403,3.917159 l 3.733639,3.728033 v 8.739113 c 0,7.838488 -0.0091,8.76996 -0.08792,9.038438 -0.284846,0.969764 -1.040107,1.728691 -2.061333,2.071336 -0.291885,0.09793 -0.942374,0.101963 -17.579794,0.10887 -9.502181,0.0039 -17.4257575,-0.0125 -17.6079471,-0.03655 z M 41.028703,27.995408 V 20.969001 H 24 6.9712974 v 7.026407 7.026406 H 24 41.028703 Z m -1.267509,-9.988295 c 0,-0.02261 -1.122056,-1.163366 -2.493458,-2.535017 l -2.493459,-2.49391 H 24.000452 13.226626 l -2.49391,2.493458 c -1.3716505,1.371402 -2.49391,2.51216 -2.49391,2.535018 0,0.02286 7.092537,0.04156 15.761194,0.04156 8.668657,0 15.761194,-0.0185 15.761194,-0.04111 z"
     id="path252"
     transform="matrix(20,0,0,20,0,-960)" />
  <path
     style="fill:#ffffff;stroke:#ffffff;stroke-width:0.0551091"
     d="m 33.285878,30.373416 c -0.661265,-0.218457 -1.238313,-0.724272 -1.530841,-1.341869 -0.169347,-0.357533 -0.17754,-0.405401 -0.17754,-1.037298 0,-0.643021 0.0055,-0.673758 0.189008,-1.047073 0.249741,-0.508187 0.68741,-0.944452 1.186388,-1.182582 0.521866,-0.249052 1.202657,-0.294529 1.780709,-0.118951 0.677851,0.205891 1.219468,0.690871 1.547139,1.385356 0.12873,0.272836 0.143176,0.369129 0.144681,0.964409 0.0016,0.642477 -0.0037,0.672293 -0.186813,1.047072 -0.249448,0.510528 -0.705738,0.966373 -1.200173,1.199002 -0.336893,0.158506 -0.433397,0.177793 -0.953476,0.190557 -0.368741,0.009 -0.658609,-0.01222 -0.799082,-0.05862 z"
     id="path254"
     transform="matrix(20,0,0,20,0,-960)" />
</svg>
