<?xml version="1.0" encoding="UTF-8" standalone="no"?>
<svg
   height="48"
   viewBox="0 -960 960 960"
   width="48"
   version="1.1"
   id="svg4"
   sodipodi:docname="GI_powerRestartWhite.svg"
   inkscape:version="1.2.2 (b0a8486541, 2022-12-01)"
   xmlns:inkscape="http://www.inkscape.org/namespaces/inkscape"
   xmlns:sodipodi="http://sodipodi.sourceforge.net/DTD/sodipodi-0.dtd"
   xmlns="http://www.w3.org/2000/svg"
   xmlns:svg="http://www.w3.org/2000/svg">
  <defs
     id="defs8" />
  <sodipodi:namedview
     id="namedview6"
     pagecolor="#ffffff"
     bordercolor="#000000"
     borderopacity="0.25"
     inkscape:showpageshadow="2"
     inkscape:pageopacity="0.0"
     inkscape:pagecheckerboard="0"
     inkscape:deskcolor="#d1d1d1"
     showgrid="false"
     inkscape:zoom="16.729167"
     inkscape:cx="24"
     inkscape:cy="23.970112"
     inkscape:window-width="1914"
     inkscape:window-height="1074"
     inkscape:window-x="0"
     inkscape:window-y="0"
     inkscape:window-maximized="1"
     inkscape:current-layer="svg4" />
  <path
     d="M451-122q-123-10-207-101t-84-216q0-77 35.5-145T295-695l43 43q-56 33-87 90.5T220-439q0 100 66 173t165 84v60Zm60 0v-60q100-12 165-84.5T741-439q0-109-75.5-184.5T481-699h-20l60 60-43 43-133-133 133-133 43 43-60 60h20q134 0 227 93.5T801-439q0 125-83.5 216T511-122Z"
     id="path2" />
  <path
     style="fill:#ffffff;stroke:#ffffff;stroke-width:0.0597758"
     d="M 21.514333,41.750976 C 18.112621,41.254354 15.191349,39.783798 12.732058,37.330012 10.193735,34.797372 8.7294751,31.904277 8.1788504,28.333748 8.0258433,27.341573 8.0273628,24.822675 8.1815728,23.820672 8.3254301,22.885937 8.64898,21.59648 8.9465177,20.772105 c 0.5351736,-1.482784 1.5466663,-3.279869 2.5371713,-4.507706 0.743457,-0.921594 1.991539,-2.084536 2.940074,-2.739511 l 0.316664,-0.21866 1.048944,1.048944 1.048945,1.048944 -0.278238,0.163058 c -1.24169,0.72768 -2.787761,2.283794 -3.660851,3.684635 -2.100286,3.369833 -2.514122,7.772748 -1.0821,11.512772 0.926801,2.420533 2.768597,4.679106 5.02433,6.161276 1.473898,0.968452 3.369139,1.676574 5.170996,1.932048 l 0.493151,0.06992 v 1.457632 1.457631 l -0.224159,-0.0064 c -0.123288,-0.0035 -0.468488,-0.04209 -0.767112,-0.08569 z"
     id="path806"
     transform="matrix(20,0,0,20,0,-960)" />
  <path
     style="fill:#ffffff;stroke:#ffffff;stroke-width:0.0597758"
     d="m 25.554172,40.396789 v -1.463467 l 0.523038,-0.07709 c 1.253562,-0.184754 2.750828,-0.647921 3.869653,-1.197046 1.282458,-0.629436 2.300516,-1.36724 3.378734,-2.448629 2.019963,-2.025904 3.211599,-4.398526 3.624446,-7.216501 0.143162,-0.977184 0.14345,-2.963715 5.38e-4,-3.904394 -0.445322,-2.931966 -1.584009,-5.197179 -3.652421,-7.265895 -2.168156,-2.168473 -4.594924,-3.350936 -7.598098,-3.702236 -0.79449,-0.09294 -2.656475,-0.125185 -2.656475,-0.04601 0,0.02442 0.659074,0.703862 1.464608,1.509881 l 1.464609,1.465487 -1.046396,1.045115 -1.046397,1.045115 -3.287454,-3.287047 -3.287455,-3.287047 3.302411,-3.3028128 3.302411,-3.3028129 1.045954,1.045954 1.045954,1.0459539 -1.479123,1.4800107 c -0.813517,0.8140059 -1.479122,1.4999871 -1.479122,1.5244031 0,0.02442 0.490909,0.04486 1.090909,0.04543 2.667999,0.0025 4.91259,0.518843 7.128269,1.639674 2.438917,1.233758 4.701661,3.276105 6.261867,5.651943 0.526993,0.80249 1.270179,2.293795 1.584506,3.179529 1.103998,3.110934 1.205744,6.846985 0.273992,10.060819 -0.998037,3.442464 -3.430545,6.696086 -6.566194,8.782667 -0.704617,0.46888 -2.266808,1.254629 -3.099778,1.559122 -1.06019,0.387554 -2.641833,0.745509 -3.729611,0.844079 l -0.433375,0.03927 z"
     id="path808"
     transform="matrix(20,0,0,20,0,-960)" />
</svg>
