<?xml version="1.0" encoding="UTF-8" standalone="no"?>
<svg
   height="48"
   viewBox="0 -960 960 960"
   width="48"
   version="1.1"
   id="svg4"
   sodipodi:docname="GI_powerShutdownWhite.svg"
   inkscape:version="1.2.2 (b0a8486541, 2022-12-01)"
   xmlns:inkscape="http://www.inkscape.org/namespaces/inkscape"
   xmlns:sodipodi="http://sodipodi.sourceforge.net/DTD/sodipodi-0.dtd"
   xmlns="http://www.w3.org/2000/svg"
   xmlns:svg="http://www.w3.org/2000/svg">
  <defs
     id="defs8" />
  <sodipodi:namedview
     id="namedview6"
     pagecolor="#ffffff"
     bordercolor="#000000"
     borderopacity="0.25"
     inkscape:showpageshadow="2"
     inkscape:pageopacity="0.0"
     inkscape:pagecheckerboard="0"
     inkscape:deskcolor="#d1d1d1"
     showgrid="false"
     inkscape:zoom="16.729167"
     inkscape:cx="24"
     inkscape:cy="23.970112"
     inkscape:window-width="1914"
     inkscape:window-height="1074"
     inkscape:window-x="0"
     inkscape:window-y="0"
     inkscape:window-maximized="1"
     inkscape:current-layer="svg4" />
  <path
     d="M450-438v-406h60v406h-60Zm30 320q-74 0-139.5-28.5T226-224q-49-49-77.5-114.5T120-478q0-80 34-149.5T250-751l42 42q-53 43-82.5 102.5T180-478.022Q180-353 267.5-265.5 355-178 480-178q125.357 0 212.679-87.5Q780-353 780-478.022 780-547 750.5-607.5 721-668 670-709l43-42q60 51 93.5 122T840-478q0 74-28.5 139.5t-77 114.5q-48.5 49-114 77.5T480-118Z"
     id="path2" />
  <path
     style="fill:#ffffff;stroke:#ffffff;stroke-width:0.0597758"
     d="M 22.56538,42.0156 C 17.371161,41.602176 12.419372,38.763891 9.3721415,34.453447 8.5249205,33.255015 7.710207,31.74261 7.1814841,30.386789 5.7938824,26.828517 5.660815,22.54721 6.8250678,18.919461 c 0.4325616,-1.34784 0.9188055,-2.411872 1.6795773,-3.675368 0.88636,-1.472074 1.5755439,-2.343317 2.9552709,-3.735955 l 1.005492,-1.0149 1.03006,1.031188 1.030061,1.031189 -0.358655,0.306222 c -0.19726,0.168423 -0.62247,0.575606 -0.944909,0.904853 -2.384518,2.434855 -3.8246915,5.45938 -4.1700268,8.757522 -0.092588,0.884261 -0.040459,3.173467 0.091456,4.016261 0.3298103,2.107133 1.0853848,4.080053 2.2041148,5.755279 0.665985,0.99727 1.11635,1.543726 2.009405,2.438137 3.162676,3.167478 6.983291,4.598909 11.618757,4.353081 3.032941,-0.160844 5.63169,-1.096781 8.020593,-2.888608 0.823511,-0.617685 2.319703,-2.081341 2.913661,-2.8503 1.282126,-1.659886 2.167569,-3.448587 2.64348,-5.340147 0.35635,-1.416354 0.420579,-2.016593 0.419274,-3.918251 -10e-4,-1.512219 -0.01661,-1.789793 -0.13865,-2.470722 -0.285748,-1.594402 -0.759272,-3.004281 -1.46893,-4.373612 -0.789275,-1.522959 -1.65182,-2.668313 -2.954958,-3.92382 l -0.832648,-0.802214 1.039871,-1.004879 1.039871,-1.004878 0.346822,0.300457 c 1.550341,1.343083 3.121572,3.416993 4.105639,5.419145 0.990308,2.014849 1.508295,3.780186 1.771487,6.03736 0.101928,0.874151 0.08516,2.952907 -0.03158,3.915317 -0.405598,3.343786 -1.727145,6.452255 -3.913651,9.20548 -0.601945,0.757963 -1.981859,2.134323 -2.757873,2.750771 -1.903029,1.511724 -4.318306,2.738647 -6.578273,3.341661 -1.857683,0.495675 -4.070547,0.692182 -6.034429,0.53587 z"
     id="path860"
     transform="matrix(20,0,0,20,0,-960)" />
  <path
     style="fill:#ffffff;stroke:#ffffff;stroke-width:0.0597758"
     d="M 22.505604,15.930262 V 5.7982565 H 24 25.494396 V 15.930262 26.062267 H 24 22.505604 Z"
     id="path862"
     transform="matrix(20,0,0,20,0,-960)" />
</svg>
