<?xml version="1.0" encoding="UTF-8" standalone="no"?>
<svg
   height="48"
   viewBox="0 -960 960 960"
   width="48"
   version="1.1"
   id="svg4"
   sodipodi:docname="GI_powerLockWhite.svg"
   inkscape:version="1.2.2 (b0a8486541, 2022-12-01)"
   xmlns:inkscape="http://www.inkscape.org/namespaces/inkscape"
   xmlns:sodipodi="http://sodipodi.sourceforge.net/DTD/sodipodi-0.dtd"
   xmlns="http://www.w3.org/2000/svg"
   xmlns:svg="http://www.w3.org/2000/svg">
  <defs
     id="defs8" />
  <sodipodi:namedview
     id="namedview6"
     pagecolor="#ffffff"
     bordercolor="#000000"
     borderopacity="0.25"
     inkscape:showpageshadow="2"
     inkscape:pageopacity="0.0"
     inkscape:pagecheckerboard="0"
     inkscape:deskcolor="#d1d1d1"
     showgrid="false"
     inkscape:zoom="16.729167"
     inkscape:cx="24"
     inkscape:cy="23.970112"
     inkscape:window-width="1914"
     inkscape:window-height="1074"
     inkscape:window-x="0"
     inkscape:window-y="0"
     inkscape:window-maximized="1"
     inkscape:current-layer="svg4" />
  <path
     d="M220-80q-24.75 0-42.375-17.625T160-140v-434q0-24.75 17.625-42.375T220-634h70v-96q0-78.85 55.606-134.425Q401.212-920 480.106-920T614.5-864.425Q670-808.85 670-730v96h70q24.75 0 42.375 17.625T800-574v434q0 24.75-17.625 42.375T740-80H220Zm260.168-200Q512-280 534.5-302.031T557-355q0-30-22.668-54.5t-54.5-24.5Q448-434 425.5-409.5t-22.5 55q0 30.5 22.668 52.5t54.5 22ZM350-634h260v-96q0-54.167-37.882-92.083-37.883-37.917-92-37.917Q426-860 388-822.083 350-784.167 350-730v96Z"
     id="path2" />
  <path
     style="fill:#ffffff;stroke:#ffffff;stroke-width:0.0597758"
     d="M 10.520548,43.928876 C 9.7230637,43.814219 8.7831709,43.143266 8.3855288,42.404768 8.0189473,41.723956 8.0398506,42.464588 8.0398506,30.156912 c 0,-12.302789 -0.020828,-11.561869 0.3443428,-12.249573 0.2364001,-0.445198 0.8816333,-1.061885 1.3375177,-1.278345 0.5796899,-0.275243 0.9129379,-0.31019 2.9579109,-0.31019 h 1.868127 l 0.02341,-3.123287 c 0.0218,-2.908354 0.03206,-3.161469 0.148998,-3.6781159 0.289179,-1.2775884 0.790952,-2.4250525 1.495547,-3.4200442 0.495583,-0.6998371 1.537733,-1.7572991 2.255027,-2.2881587 2.097994,-1.5526989 4.865491,-2.1194488 7.621419,-1.5607743 3.04576,0.6174283 5.909569,3.199839 6.900994,6.2229 0.403598,1.2306549 0.410021,1.3002991 0.435689,4.7241931 l 0.02341,3.123287 h 1.868126 c 2.049524,0 2.376946,0.03461 2.966049,0.313532 0.460254,0.217915 1.085045,0.817391 1.328845,1.275003 0.365759,0.68653 0.344878,-0.05514 0.344878,12.249573 0,9.907871 -0.01088,11.284394 -0.09163,11.594423 -0.287992,1.105678 -1.317684,2.023363 -2.448842,2.182462 -0.52446,0.07377 -26.384728,0.06903 -26.899128,-0.0049 z M 25.040338,33.89437 c 0.63785,-0.163135 1.110341,-0.431531 1.643613,-0.933645 0.741438,-0.698116 1.103302,-1.446554 1.179653,-2.439856 0.0898,-1.168216 -0.368827,-2.28675 -1.304928,-3.18258 -0.511431,-0.48943 -0.874941,-0.711768 -1.465119,-0.896132 -0.442126,-0.138114 -0.562985,-0.150759 -1.225405,-0.128209 -1.073407,0.03654 -1.714687,0.302322 -2.438785,1.01076 -1.601042,1.566417 -1.751194,3.868133 -0.351954,5.395157 0.57531,0.627849 1.215847,1.019594 1.966174,1.20249 0.509647,0.124229 1.453312,0.111003 1.996751,-0.02799 z m 5.461327,-20.549414 -0.021,-2.973848 -0.161143,-0.5934913 C 29.904192,8.2479452 28.900934,6.8786049 27.550714,5.998487 26.663978,5.4204837 25.816854,5.1287454 24.681626,5.0104116 23.453883,4.8824341 22.137833,5.1082096 21.107449,5.6235813 19.435439,6.459879 18.160062,8.0045637 17.681173,9.7733499 l -0.16184,0.5977581 -0.021,2.973848 -0.021,2.973848 H 24 30.522661 Z"
     id="path860"
     transform="matrix(20,0,0,20,0,-960)" />
</svg>
