<?xml version="1.0" encoding="UTF-8" standalone="no"?>
<svg
   height="48"
   viewBox="0 -960 960 960"
   width="48"
   version="1.1"
   id="svg4"
   sodipodi:docname="GI_timeClockWhite.svg"
   inkscape:version="1.2.2 (b0a8486541, 2022-12-01)"
   xmlns:inkscape="http://www.inkscape.org/namespaces/inkscape"
   xmlns:sodipodi="http://sodipodi.sourceforge.net/DTD/sodipodi-0.dtd"
   xmlns="http://www.w3.org/2000/svg"
   xmlns:svg="http://www.w3.org/2000/svg">
  <defs
     id="defs8" />
  <sodipodi:namedview
     id="namedview6"
     pagecolor="#505050"
     bordercolor="#eeeeee"
     borderopacity="1"
     inkscape:showpageshadow="0"
     inkscape:pageopacity="0"
     inkscape:pagecheckerboard="0"
     inkscape:deskcolor="#505050"
     showgrid="false"
     inkscape:zoom="18.145833"
     inkscape:cx="24"
     inkscape:cy="24"
     inkscape:window-width="1906"
     inkscape:window-height="1066"
     inkscape:window-x="0"
     inkscape:window-y="0"
     inkscape:window-maximized="1"
     inkscape:current-layer="svg4" />
  <path
     d="m627-287 45-45-159-160v-201h-60v225l174 181ZM480-80q-82 0-155-31.5t-127.5-86Q143-252 111.5-325T80-480q0-82 31.5-155t86-127.5Q252-817 325-848.5T480-880q82 0 155 31.5t127.5 86Q817-708 848.5-635T880-480q0 82-31.5 155t-86 127.5Q708-143 635-111.5T480-80Zm0-400Zm0 340q140 0 240-100t100-240q0-140-100-240T480-820q-140 0-240 100T140-480q0 140 100 240t240 100Z"
     id="path2" />
  <path
     style="fill:#ffffff;stroke:#ffffff;stroke-width:0.0551091"
     d="M 22.071183,43.886466 C 17.732642,43.488412 13.371587,41.455974 10.145605,38.328639 7.0620611,35.339386 4.98041,31.405045 4.3009415,27.282167 4.1069775,26.105232 4.0509202,25.36036 4.050705,23.957101 4.0502045,20.69413 4.7006106,17.992793 6.2038945,15.014243 9.249894,8.9790155 15.23512,4.8375232 21.926701,4.1348075 c 1.050479,-0.110316 3.096119,-0.110316 4.146598,0 2.433564,0.2555604 4.455878,0.8519555 6.744152,1.988899 2.952507,1.4669715 5.412207,3.5447522 7.375136,6.2299915 0.747564,1.022649 1.704535,2.735585 2.259224,4.043906 0.741672,1.749354 1.269426,3.868136 1.44065,5.783797 0.07288,0.815397 0.07288,2.821801 0,3.637198 -0.414754,4.640279 -2.570907,9.129334 -5.984352,12.459263 -2.159784,2.106941 -4.74235,3.685608 -7.651584,4.67725 -1.389653,0.473677 -2.951392,0.803935 -4.419855,0.934657 -0.774984,0.06899 -2.998807,0.06704 -3.765487,-0.0033 z m 4.188289,-2.994162 c 2.953329,-0.394322 5.464422,-1.414544 7.796019,-3.167412 3.038807,-2.284541 5.327396,-5.495476 6.28284,-8.814944 0.49746,-1.72831 0.656958,-2.920361 0.656958,-4.909948 0,-1.989587 -0.159498,-3.181638 -0.656958,-4.909948 -0.959403,-3.333226 -3.236134,-6.527563 -6.280926,-8.812369 -2.362581,-1.7728775 -4.801771,-2.7625835 -7.825488,-3.1752075 -1.009257,-0.1377258 -3.454577,-0.1377258 -4.463834,0 -2.413869,0.3294025 -4.501366,1.0486974 -6.426846,2.2145157 -1.869227,1.1317588 -3.685638,2.7915598 -5.070239,4.6330848 -1.7603931,2.34133 -2.7565874,4.799338 -3.1685225,7.818007 -0.1377258,1.009257 -0.1377258,3.454577 0,4.463834 0.4114653,3.015226 1.4148949,5.488784 3.1737295,7.823574 2.296963,3.049134 5.492084,5.326736 8.813847,6.28284 1.126698,0.324298 2.447099,0.560623 3.669994,0.656855 0.584997,0.04604 2.8921,-0.02179 3.499426,-0.102882 z"
     id="path252"
     transform="matrix(20,0,0,20,0,-960)" />
  <path
     style="fill:#ffffff;stroke:#ffffff;stroke-width:0.0551091"
     d="m 27.011504,29.090387 -4.334122,-4.509008 v -5.608715 -5.608715 h 1.460391 1.46039 v 5.025592 5.025592 l 3.954076,3.958516 c 2.174741,2.177184 3.960334,3.976692 3.967982,3.998906 0.0076,0.02222 -0.478506,0.532341 -1.080344,1.133615 l -1.09425,1.093224 z"
     id="path254"
     transform="matrix(20,0,0,20,0,-960)" />
</svg>
