<?xml version="1.0" encoding="UTF-8" standalone="no"?>
<svg
   height="48"
   viewBox="0 -960 960 960"
   width="48"
   version="1.1"
   id="svg4"
   sodipodi:docname="GI_userAccountWhite.svg"
   inkscape:version="1.2.2 (b0a8486541, 2022-12-01)"
   xmlns:inkscape="http://www.inkscape.org/namespaces/inkscape"
   xmlns:sodipodi="http://sodipodi.sourceforge.net/DTD/sodipodi-0.dtd"
   xmlns="http://www.w3.org/2000/svg"
   xmlns:svg="http://www.w3.org/2000/svg">
  <defs
     id="defs8" />
  <sodipodi:namedview
     id="namedview6"
     pagecolor="#505050"
     bordercolor="#eeeeee"
     borderopacity="1"
     inkscape:showpageshadow="0"
     inkscape:pageopacity="0"
     inkscape:pagecheckerboard="0"
     inkscape:deskcolor="#505050"
     showgrid="false"
     inkscape:zoom="18.145833"
     inkscape:cx="24"
     inkscape:cy="24"
     inkscape:window-width="1906"
     inkscape:window-height="1066"
     inkscape:window-x="0"
     inkscape:window-y="0"
     inkscape:window-maximized="1"
     inkscape:current-layer="svg4" />
  <path
     d="M222-255q63-44 125-67.5T480-346q71 0 133.5 23.5T739-255q44-54 62.5-109T820-480q0-145-97.5-242.5T480-820q-145 0-242.5 97.5T140-480q0 61 19 116t63 109Zm257.814-195Q422-450 382.5-489.686q-39.5-39.686-39.5-97.5t39.686-97.314q39.686-39.5 97.5-39.5t97.314 39.686q39.5 39.686 39.5 97.5T577.314-489.5q-39.686 39.5-97.5 39.5Zm.654 370Q398-80 325-111.5q-73-31.5-127.5-86t-86-127.266Q80-397.532 80-480.266T111.5-635.5q31.5-72.5 86-127t127.266-86q72.766-31.5 155.5-31.5T635.5-848.5q72.5 31.5 127 86t86 127.032q31.5 72.532 31.5 155T848.5-325q-31.5 73-86 127.5t-127.032 86q-72.532 31.5-155 31.5ZM480-140q55 0 107.5-16T691-212q-51-36-104-55t-107-19q-54 0-107 19t-104 55q51 40 103.5 56T480-140Zm0-370q34 0 55.5-21.5T557-587q0-34-21.5-55.5T480-664q-34 0-55.5 21.5T403-587q0 34 21.5 55.5T480-510Zm0-77Zm0 374Z"
     id="path2" />
  <path
     style="fill:#ffffff;stroke:#ffffff;stroke-width:0.0551091"
     d="M 22.401837,43.91336 C 20.601069,43.740793 19.148373,43.439071 17.665113,42.929552 11.887189,40.944759 7.3706337,36.533232 5.2152991,30.769248 4.7307283,29.473366 4.3459597,27.86298 4.1509481,26.314581 4.0368343,25.408513 4.0554604,22.287979 4.1802237,21.409874 4.7072344,17.700684 6.0840419,14.502073 8.4263014,11.54535 9.130165,10.656837 10.660235,9.1303002 11.569951,8.4089599 c 3.051624,-2.4197202 6.58547,-3.8781119 10.35675,-4.2741524 1.046775,-0.109927 3.093308,-0.1101753 4.155234,-5.043e-4 2.935189,0.303134 5.534635,1.1805036 8.169551,2.757401 2.75537,1.6489844 5.189151,4.0852298 6.873221,6.8801788 1.545668,2.565253 2.428803,5.203731 2.747152,8.207466 0.110477,1.042385 0.07872,3.635882 -0.05613,4.583223 -0.197038,1.384279 -0.480808,2.592242 -0.886178,3.772315 -1.751443,5.098618 -5.416874,9.257829 -10.249873,11.63066 -2.166855,1.063849 -4.192473,1.646149 -6.609231,1.899945 -0.7191,0.07552 -3.061204,0.106076 -3.668611,0.04787 z m 3.797735,-3.02119 c 2.677924,-0.342724 4.786593,-1.077987 6.820263,-2.378132 0.67531,-0.431732 1.561404,-1.067667 1.560709,-1.120095 -4.96e-4,-0.03881 -0.990636,-0.681016 -1.718768,-1.114813 -0.816434,-0.486404 -2.428277,-1.258384 -3.313621,-1.587034 -1.202898,-0.446529 -2.651928,-0.787646 -3.977547,-0.936356 -0.639369,-0.07173 -2.501847,-0.07173 -3.141216,0 -2.147925,0.240958 -4.039377,0.8296 -6.172216,1.92087 -0.910311,0.465761 -2.345041,1.324483 -2.683106,1.605907 l -0.16698,0.139004 0.625961,0.448126 c 2.109251,1.510015 3.978989,2.329682 6.383852,2.798592 0.652304,0.127189 1.714692,0.27182 2.398252,0.326491 0.579273,0.04633 2.730379,-0.01885 3.384417,-0.10256 z m -14.47328,-6.026292 c 2.926476,-1.956274 5.882779,-3.269676 8.499232,-3.775968 1.378604,-0.266765 2.144787,-0.334707 3.774476,-0.334707 2.063588,0 3.568204,0.200027 5.337227,0.709542 2.010493,0.579064 4.515784,1.785528 6.780641,3.26533 0.436124,0.284953 0.823414,0.506408 0.860644,0.492121 0.100014,-0.03838 1.039308,-1.312333 1.474734,-2.000165 0.513944,-0.811865 1.308558,-2.437737 1.584807,-3.242697 0.427219,-1.244876 0.726673,-2.581755 0.888776,-3.967853 0.09227,-0.788957 0.09237,-3.287792 1.65e-4,-4.078071 -0.396619,-3.399504 -1.490499,-6.111926 -3.478157,-8.62457 -0.542524,-0.685817 -2.041453,-2.194453 -2.702568,-2.720069 -2.522391,-2.0054162 -5.258772,-3.1139881 -8.679679,-3.5163418 -0.793456,-0.093323 -3.339724,-0.093323 -4.13318,0 -3.406557,0.4006658 -6.114003,1.4927185 -8.62457,3.4787338 -0.685817,0.542524 -2.194453,2.041453 -2.720069,2.702568 -1.7508819,2.20224 -2.8713424,4.701768 -3.3375298,7.445375 -0.1637444,0.963668 -0.2237216,1.583085 -0.2609231,2.694694 -0.1115897,3.334379 0.656352,6.519345 2.2144642,9.184281 0.5790186,0.990332 1.7755877,2.664169 1.9045237,2.664169 0.02967,0 0.307319,-0.169367 0.616986,-0.376372 z"
     id="path306"
     transform="matrix(20,0,0,20,0,-960)" />
  <path
     style="fill:#ffffff;stroke:#ffffff;stroke-width:0.0551091"
     d="m 23.146844,25.430816 c -1.02177,-0.116453 -2.104236,-0.511749 -2.967003,-1.083494 -0.497954,-0.329987 -1.275345,-1.074323 -1.67079,-1.599746 -1.901042,-2.525893 -1.74952,-6.340164 0.341972,-8.608461 1.326522,-1.43866 2.633891,-2.099264 4.501406,-2.274526 2.466656,-0.23149 4.66995,0.744005 6.188388,2.739872 0.378183,0.497091 0.883628,1.560609 1.045319,2.199476 0.415288,1.640879 0.265402,3.392701 -0.411526,4.809788 -0.342631,0.717269 -0.664184,1.17717 -1.238684,1.771629 -1.015102,1.050369 -2.204662,1.704778 -3.569511,1.963686 -0.556592,0.105584 -1.655453,0.146069 -2.219571,0.08178 z m 2.202799,-3.107142 c 1.139291,-0.389097 1.952227,-1.203352 2.31914,-2.322902 0.150218,-0.458355 0.161297,-0.550835 0.161297,-1.346352 0,-0.739761 -0.01721,-0.909559 -0.12849,-1.267508 -0.194201,-0.62469 -0.470691,-1.078557 -0.940896,-1.544509 -0.483642,-0.479267 -1.095662,-0.814049 -1.752055,-0.958394 -0.516743,-0.113634 -1.502014,-0.113433 -2.017278,4.13e-4 -1.281477,0.283138 -2.29613,1.226029 -2.692951,2.50249 -0.112741,0.362656 -0.128138,0.521395 -0.125612,1.295063 0.0026,0.805355 0.01571,0.920315 0.150961,1.326939 0.410197,1.233219 1.406971,2.124532 2.711832,2.424914 0.222867,0.0513 0.58216,0.07027 1.102182,0.05818 0.666888,-0.01551 0.831248,-0.03834 1.21187,-0.16833 z"
     id="path308"
     transform="matrix(20,0,0,20,0,-960)" />
</svg>
