<?xml version="1.0" encoding="UTF-8" standalone="no"?>
<svg
   height="48"
   viewBox="0 -960 960 960"
   width="48"
   version="1.1"
   id="svg4"
   sodipodi:docname="GI_volumeHighWhite.svg"
   inkscape:version="1.2.2 (b0a8486541, 2022-12-01)"
   xmlns:inkscape="http://www.inkscape.org/namespaces/inkscape"
   xmlns:sodipodi="http://sodipodi.sourceforge.net/DTD/sodipodi-0.dtd"
   xmlns="http://www.w3.org/2000/svg"
   xmlns:svg="http://www.w3.org/2000/svg">
  <defs
     id="defs8" />
  <sodipodi:namedview
     id="namedview6"
     pagecolor="#ffffff"
     bordercolor="#000000"
     borderopacity="0.25"
     inkscape:showpageshadow="2"
     inkscape:pageopacity="0.0"
     inkscape:pagecheckerboard="0"
     inkscape:deskcolor="#d1d1d1"
     showgrid="false"
     inkscape:zoom="16.729167"
     inkscape:cx="24"
     inkscape:cy="23.970112"
     inkscape:window-width="1914"
     inkscape:window-height="1074"
     inkscape:window-x="0"
     inkscape:window-y="0"
     inkscape:window-maximized="1"
     inkscape:current-layer="svg4" />
  <path
     d="M560-131v-62q97-28 158.5-107.5T780-481q0-101-61-181T560-769v-62q124 28 202 125.5T840-481q0 127-78 224.5T560-131ZM120-360v-240h160l200-200v640L280-360H120Zm420 48v-337q55 17 87.5 64T660-480q0 57-33 104t-87 64Z"
     id="path2" />
  <path
     style="fill:#ffffff;stroke:#ffffff;stroke-width:0.0597758;stroke-opacity:1"
     d="M 18.978829,34.938979 13.987815,29.947696 H 9.9976436 6.007472 V 24 18.052304 H 9.9973767 13.987281 L 18.993641,13.046211 24,8.0401174 V 23.985189 c 0,8.76979 -0.0068,15.945073 -0.01508,15.945073 -0.0083,0 -2.261035,-2.246078 -5.006093,-4.991283 z"
     id="path860"
     transform="matrix(20,0,0,20,0,-960)" />
  <path
     style="fill:#ffffff;stroke:#ffffff;stroke-width:0.0597758;stroke-opacity:1"
     d="m 27.048568,23.970112 c 0,-4.60274 0.01275,-8.368618 0.02833,-8.368618 0.01558,0 0.231789,0.08082 0.48046,0.179605 1.307142,0.519252 2.38726,1.280711 3.221669,2.271205 1.92405,2.283961 2.618758,5.225141 1.917876,8.119701 -0.559528,2.310787 -2.205295,4.482103 -4.213717,5.559299 -0.379568,0.203577 -1.314542,0.607426 -1.406288,0.607426 -0.01558,0 -0.02833,-3.765878 -0.02833,-8.368618 z"
     id="path1483"
     transform="matrix(20,0,0,20,0,-960)" />
  <path
     style="fill:#ffffff;stroke:#ffffff;stroke-width:0.0597758;stroke-opacity:1"
     d="m 27.098042,28.127088 c -0.01077,-2.286337 -0.01077,-6.027615 0,-8.313952 l 0.01959,-4.156975 0.129853,0.0367 c 0.318893,0.09012 1.720628,0.819188 2.072568,1.077975 1.424687,1.047598 2.490485,2.49906 3.096973,4.217629 0.371018,1.05133 0.459689,1.626475 0.459689,2.981649 0,0.956369 -0.02378,1.336956 -0.108336,1.733499 -0.261807,1.22787 -0.811778,2.491203 -1.516866,3.484375 -0.450394,0.634416 -1.477633,1.660448 -2.06575,2.063323 -0.418479,0.286668 -1.612907,0.899695 -1.938278,0.994799 l -0.129853,0.03796 z"
     id="path1485"
     transform="matrix(20,0,0,20,0,-960)" />
  <path
     style="fill:#ffffff;stroke:#ffffff;stroke-width:0.0597758;stroke-opacity:1"
     d="m 27.087232,28.124533 c -0.02237,-2.284932 -0.02235,-6.025717 3.9e-5,-8.312857 l 0.04071,-4.158436 0.152404,0.03825 c 0.245027,0.0615 1.375598,0.637558 1.830444,0.932666 1.78673,1.159249 3.145733,3.224116 3.654524,5.55268 0.159798,0.731342 0.159798,2.855208 0,3.58655 -0.296724,1.358005 -0.94045,2.73682 -1.751042,3.750604 -0.657219,0.821965 -1.483319,1.561812 -2.232249,1.999178 -0.454976,0.2657 -1.499482,0.765785 -1.599464,0.765785 -0.03216,0 -0.07145,-1.711538 -0.09537,-4.154421 z"
     id="path1487"
     transform="matrix(20,0,0,20,0,-960)" />
  <path
     style="fill:#ffffff;stroke:#ffffff;stroke-width:0.0597758;stroke-opacity:1"
     d="m 27.088158,30.027577 c -0.05092,-2.89557 -0.05093,-9.628397 -2.2e-5,-12.294273 0.03643,-1.907759 0.04775,-2.072034 0.142805,-2.072034 0.201835,0 1.768628,0.842595 2.277808,1.224967 1.662362,1.248361 2.991247,3.481036 3.30906,5.559591 0.115801,0.757359 0.109095,2.536207 -0.01198,3.177421 -0.204476,1.082916 -0.733993,2.360054 -1.396349,3.367838 -0.495397,0.753755 -1.632945,1.898333 -2.345657,2.360153 -0.526807,0.341359 -1.698157,0.927714 -1.853275,0.927714 -0.06838,0 -0.08969,-0.391994 -0.122391,-2.251377 z"
     id="path1489"
     transform="matrix(20,0,0,20,0,-960)" />
  <path
     style="fill:#ffffff;stroke:#ffffff;stroke-width:0.0597758;stroke-opacity:1"
     d="m 27.087991,30.924337 c -0.05101,-1.752941 -0.05095,-12.68199 8.5e-5,-14.14227 0.03186,-0.911594 0.05506,-1.120797 0.124307,-1.120797 0.264573,0 1.810728,0.82695 2.406546,1.287123 1.066888,0.823999 2.11102,2.237131 2.670363,3.61408 0.486209,1.196912 0.571046,1.639158 0.602093,3.138648 0.03069,1.482179 -0.03438,2.041435 -0.347462,2.986455 -0.251399,0.758831 -0.814548,1.882213 -1.249227,2.491989 -0.458036,0.642542 -1.632786,1.801142 -2.195037,2.164861 -0.49497,0.320194 -1.724964,0.934528 -1.871073,0.934528 -0.09091,0 -0.105171,-0.13741 -0.140595,-1.354617 z"
     id="path1491"
     transform="matrix(20,0,0,20,0,-960)" />
  <path
     style="fill:#ffffff;stroke:#ffffff;stroke-width:0.0597758;stroke-opacity:1"
     d="m 28.004981,39.897709 v -1.51828 l 0.323395,-0.09401 c 1.143757,-0.332499 2.898924,-1.156638 3.950578,-1.854993 3.032513,-2.013756 5.364301,-5.221973 6.250526,-8.599859 0.378468,-1.442544 0.44192,-1.995239 0.443199,-3.860452 0.0013,-1.852836 -0.04559,-2.299293 -0.387907,-3.695784 C 38.333121,19.24772 38.034331,18.431998 37.54097,17.424661 36.804762,15.92148 35.934846,14.692419 34.733257,13.457779 33.027677,11.705286 31.082984,10.502821 28.722291,9.7410113 L 28.034869,9.519173 28.018899,8.0173698 c -0.01305,-1.2270184 -0.0012,-1.5018032 0.06453,-1.5018032 0.167375,0 1.592364,0.4170171 2.241785,0.6560488 2.41476,0.8887977 4.372474,2.1135228 6.159639,3.8534046 3.850091,3.748229 5.739987,8.582883 5.447651,13.935952 -0.201203,3.684273 -1.332309,6.804946 -3.529922,9.738903 -2.439306,3.256635 -5.731011,5.4851 -9.615891,6.509904 l -0.78171,0.206209 z"
     id="path1493"
     transform="matrix(20,0,0,20,0,-960)" />
</svg>
