<?xml version="1.0" encoding="UTF-8" standalone="no"?>
<svg
   height="48"
   viewBox="0 -960 960 960"
   width="48"
   version="1.1"
   id="svg4"
   sodipodi:docname="GI_volumeMediumWhite.svg"
   inkscape:version="1.2.2 (b0a8486541, 2022-12-01)"
   xmlns:inkscape="http://www.inkscape.org/namespaces/inkscape"
   xmlns:sodipodi="http://sodipodi.sourceforge.net/DTD/sodipodi-0.dtd"
   xmlns="http://www.w3.org/2000/svg"
   xmlns:svg="http://www.w3.org/2000/svg">
  <defs
     id="defs8" />
  <sodipodi:namedview
     id="namedview6"
     pagecolor="#ffffff"
     bordercolor="#000000"
     borderopacity="0.25"
     inkscape:showpageshadow="2"
     inkscape:pageopacity="0.0"
     inkscape:pagecheckerboard="0"
     inkscape:deskcolor="#d1d1d1"
     showgrid="false"
     inkscape:zoom="16.729167"
     inkscape:cx="24"
     inkscape:cy="23.970112"
     inkscape:window-width="1914"
     inkscape:window-height="1074"
     inkscape:window-x="0"
     inkscape:window-y="0"
     inkscape:window-maximized="1"
     inkscape:current-layer="svg4" />
  <path
     d="M200-360v-240h160l200-200v640L360-360H200Zm420 48v-337q54 17 87 64t33 105q0 59-33 105t-87 63Z"
     id="path2" />
  <path
     style="fill:#ffffff;stroke:#ffffff;stroke-width:0.0597758"
     d="M 22.953923,34.909091 17.992798,29.947696 H 14.002626 10.012453 V 24 18.052304 h 3.989904 3.989904 l 4.976472,-4.976205 4.976472,-4.9762041 V 23.985191 c 0,8.736912 -0.0068,15.885295 -0.01508,15.885295 -0.0083,0 -2.247584,-2.232628 -4.976203,-4.961395 z"
     id="path806"
     transform="matrix(20,0,0,20,0,-960)" />
  <path
     style="fill:#ffffff;stroke:#ffffff;stroke-width:0.0597758"
     d="m 31.053549,23.97736 v -8.369426 l 0.313823,0.108191 c 2.676068,0.922585 4.843746,3.520538 5.425608,6.502568 0.631028,3.234006 -0.484481,6.515447 -2.908139,8.554737 -0.300324,0.252696 -0.760565,0.588631 -1.022757,0.746522 -0.426512,0.256845 -1.31536,0.673684 -1.674039,0.785068 l -0.134496,0.04177 z"
     id="path808"
     transform="matrix(20,0,0,20,0,-960)" />
</svg>
